<svg width="95" height="28" viewBox="0 0 95 28" fill="none" xmlns="http://www.w3.org/2000/svg">
<path d="M40.3792 21.2C39.5926 21.2 38.9126 21 38.3392 20.6C37.7792 20.1867 37.3326 19.6267 36.9992 18.92V21H33.5992V20.6L34.9992 20.4V5.6L33.5992 5.4V5H36.9992V12.74C37.3326 12.0333 37.7792 11.48 38.3392 11.08C38.9126 10.6667 39.5926 10.46 40.3792 10.46C41.3259 10.46 42.1592 10.68 42.8792 11.12C43.5992 11.56 44.1592 12.1867 44.5592 13C44.9592 13.8 45.1592 14.74 45.1592 15.82C45.1592 16.9 44.9592 17.8467 44.5592 18.66C44.1592 19.46 43.5992 20.0867 42.8792 20.54C42.1592 20.98 41.3259 21.2 40.3792 21.2ZM40.1792 20.7C42.0326 20.7 42.9592 19.4067 42.9592 16.82V14.82C42.9592 12.2467 42.0326 10.96 40.1792 10.96C39.5926 10.96 39.0592 11.1333 38.5792 11.48C38.0992 11.8133 37.7192 12.2667 37.4392 12.84C37.1592 13.4 37.0126 14.0133 36.9992 14.68V16.82C36.9992 17.5 37.1326 18.14 37.3992 18.74C37.6792 19.34 38.0592 19.82 38.5392 20.18C39.0326 20.5267 39.5792 20.7 40.1792 20.7ZM46.4117 21V20.6L47.9117 20.4V5.6L46.4117 5.4V5H49.9117V20.4L51.3117 20.6V21H46.4117ZM57.7744 21.2C56.8144 21.2 55.941 20.98 55.1544 20.54C54.3677 20.0867 53.741 19.4533 53.2744 18.64C52.821 17.8133 52.5944 16.8733 52.5944 15.82C52.5944 14.7667 52.821 13.8333 53.2744 13.02C53.741 12.2067 54.3677 11.58 55.1544 11.14C55.941 10.6867 56.8144 10.46 57.7744 10.46C58.7344 10.46 59.6077 10.6867 60.3944 11.14C61.181 11.58 61.801 12.2067 62.2544 13.02C62.721 13.8333 62.9544 14.7667 62.9544 15.82C62.9544 16.8733 62.721 17.8133 62.2544 18.64C61.801 19.4533 61.181 20.0867 60.3944 20.54C59.6077 20.98 58.7344 21.2 57.7744 21.2ZM57.7744 20.76C58.761 20.76 59.501 20.4 59.9944 19.68C60.501 18.96 60.7544 18.0067 60.7544 16.82V14.82C60.7544 13.6333 60.501 12.6867 59.9944 11.98C59.501 11.26 58.761 10.9 57.7744 10.9C56.7877 10.9 56.041 11.26 55.5344 11.98C55.041 12.6867 54.7944 13.6333 54.7944 14.82V16.82C54.7944 18.0067 55.041 18.96 55.5344 19.68C56.041 20.4 56.7877 20.76 57.7744 20.76ZM69.8447 21.2C68.8847 21.2 68.0114 20.98 67.2247 20.54C66.438 20.0867 65.8114 19.4533 65.3447 18.64C64.8914 17.8133 64.6647 16.8733 64.6647 15.82C64.6647 14.7667 64.8914 13.8333 65.3447 13.02C65.8114 12.2067 66.438 11.58 67.2247 11.14C68.0114 10.6867 68.8847 10.46 69.8447 10.46C70.8047 10.46 71.678 10.6867 72.4647 11.14C73.2514 11.58 73.8714 12.2067 74.3247 13.02C74.7914 13.8333 75.0247 14.7667 75.0247 15.82C75.0247 16.8733 74.7914 17.8133 74.3247 18.64C73.8714 19.4533 73.2514 20.0867 72.4647 20.54C71.678 20.98 70.8047 21.2 69.8447 21.2ZM69.8447 20.76C70.8314 20.76 71.5714 20.4 72.0647 19.68C72.5714 18.96 72.8247 18.0067 72.8247 16.82V14.82C72.8247 13.6333 72.5714 12.6867 72.0647 11.98C71.5714 11.26 70.8314 10.9 69.8447 10.9C68.858 10.9 68.1114 11.26 67.6047 11.98C67.1114 12.6867 66.8647 13.6333 66.8647 14.82V16.82C66.8647 18.0067 67.1114 18.96 67.6047 19.68C68.1114 20.4 68.858 20.76 69.8447 20.76ZM76.415 20.6L77.815 20.4V11.24L76.415 11.04V10.64H79.815V12.48C80.295 11.8533 80.835 11.36 81.435 11C82.0483 10.64 82.7083 10.46 83.415 10.46C84.2283 10.46 84.8883 10.64 85.395 11C85.915 11.3467 86.2417 11.8733 86.375 12.58C86.855 11.9267 87.4017 11.4133 88.015 11.04C88.6283 10.6533 89.3017 10.46 90.035 10.46C90.9817 10.46 91.715 10.7 92.235 11.18C92.7683 11.6467 93.035 12.36 93.035 13.32V20.4L94.435 20.6V21H89.835V20.6L91.035 20.4V13.36C91.035 12.6533 90.9083 12.1133 90.655 11.74C90.4017 11.3667 89.9883 11.18 89.415 11.18C88.8683 11.18 88.335 11.3667 87.815 11.74C87.3083 12.1133 86.8483 12.5933 86.435 13.18V20.4L87.635 20.6V21H83.215V20.6L84.415 20.4V13.36C84.415 12.6533 84.2883 12.1133 84.035 11.74C83.7817 11.3667 83.3683 11.18 82.795 11.18C82.2483 11.18 81.715 11.3667 81.195 11.74C80.6883 12.1133 80.2283 12.5933 79.815 13.18V20.4L81.015 20.6V21H76.415V20.6Z" fill="black"/>
<path d="M28.0001 14C28.0001 15.0406 27.7951 16.0711 27.3968 17.0326C26.9986 17.994 26.4149 18.8676 25.679 19.6035C24.9432 20.3393 24.0696 20.923 23.1081 21.3213C22.1467 21.7195 21.1162 21.9245 20.0755 21.9245C19.0349 21.9245 18.0044 21.7195 17.0429 21.3213C16.0815 20.923 15.2079 20.3393 14.472 19.6035C13.7362 18.8676 13.1525 17.994 12.7542 17.0326C12.356 16.0711 12.151 15.0406 12.151 14L20.0755 14H28.0001Z" fill="url(#paint0_linear_231_19)"/>
<path d="M0 14C9.09778e-08 12.9593 0.204974 11.9288 0.603219 10.9674C1.00146 10.0059 1.58518 9.13234 2.32104 8.39648C3.0569 7.66062 3.9305 7.0769 4.89194 6.67866C5.85339 6.28041 6.88387 6.07544 7.92453 6.07544C8.96519 6.07544 9.99567 6.28041 10.9571 6.67866C11.9186 7.0769 12.7922 7.66062 13.528 8.39648C14.2639 9.13234 14.8476 10.0059 15.2458 10.9674C15.6441 11.9288 15.8491 12.9593 15.8491 14L7.92453 14L0 14Z" fill="url(#paint1_linear_231_19)"/>
<path d="M14 6.48499e-05C15.0406 6.48499e-05 16.0711 0.205039 17.0326 0.603284C17.994 1.00153 18.8676 1.58525 19.6035 2.32111C20.3393 3.05697 20.923 3.93056 21.3213 4.89201C21.7195 5.85346 21.9245 6.88393 21.9245 7.92459C21.9245 8.96526 21.7195 9.99573 21.3213 10.9572C20.923 11.9186 20.3393 12.7922 19.6035 13.5281C18.8676 14.2639 17.994 14.8477 17.0326 15.2459C16.0711 15.6441 15.0406 15.8491 14 15.8491L14 7.92459V6.48499e-05Z" fill="url(#paint2_linear_231_19)"/>
<path d="M14 28C12.9593 28 11.9288 27.795 10.9674 27.3968C10.0059 26.9985 9.13234 26.4148 8.39648 25.679C7.66062 24.9431 7.0769 24.0695 6.67866 23.1081C6.28041 22.1466 6.07544 21.1161 6.07544 20.0755C6.07544 19.0348 6.28041 18.0043 6.67866 17.0429C7.0769 16.0814 7.66062 15.2078 8.39648 14.472C9.13234 13.7361 10.0059 13.1524 10.9674 12.7542C11.9288 12.3559 12.9593 12.1509 14 12.1509L14 20.0755L14 28Z" fill="url(#paint3_linear_231_19)"/>
<defs>
<linearGradient id="paint0_linear_231_19" x1="20.0755" y1="6.07544" x2="20.0755" y2="21.9245" gradientUnits="userSpaceOnUse">
<stop stop-color="#FFD54D"/>
<stop offset="1" stop-color="#FDA274"/>
</linearGradient>
<linearGradient id="paint1_linear_231_19" x1="7.92453" y1="6.07544" x2="7.92453" y2="21.9245" gradientUnits="userSpaceOnUse">
<stop stop-color="#FFD54D"/>
<stop offset="1" stop-color="#FDA274"/>
</linearGradient>
<linearGradient id="paint2_linear_231_19" x1="6.07544" y1="7.92459" x2="21.9245" y2="7.92459" gradientUnits="userSpaceOnUse">
<stop stop-color="#FFD54D"/>
<stop offset="1" stop-color="#FDA274"/>
</linearGradient>
<linearGradient id="paint3_linear_231_19" x1="6.07544" y1="20.0755" x2="21.9245" y2="20.0755" gradientUnits="userSpaceOnUse">
<stop stop-color="#FFD54D"/>
<stop offset="1" stop-color="#FDA274"/>
</linearGradient>
</defs>
</svg>
